<?xml version="1.0" encoding="utf-8"?>
<!-- Generator: Adobe Illustrator 15.1.0, SVG Export Plug-In  -->
<!DOCTYPE svg PUBLIC "-//W3C//DTD SVG 1.1//EN" "http://www.w3.org/Graphics/SVG/1.1/DTD/svg11.dtd" [
	<!ENTITY ns_flows "http://ns.adobe.com/Flows/1.0/">
]>
<svg version="1.1"
	 xmlns="http://www.w3.org/2000/svg" xmlns:xlink="http://www.w3.org/1999/xlink" xmlns:a="http://ns.adobe.com/AdobeSVGViewerExtensions/3.0/"
	 x="0px" y="0px" width="414px" height="350px" viewBox="-42.426 -18.873 414 350" enable-background="new -42.426 -18.873 414 350"
	 xml:space="preserve">
<defs>
</defs>
<path fill-rule="evenodd" clip-rule="evenodd" d="M144.293,0c1.538,0,3.075,0,4.613,0c0,5.126,0,10.252,0,15.378
	c-1.538,0-3.076,0-4.613,0C144.293,10.252,144.293,5.126,144.293,0z"/>
<path fill-rule="evenodd" clip-rule="evenodd" d="M42.797,11.534c67.201,15.842,132.896,33.188,197.609,51.517
	c-8.031,0.421-15.805-2.557-23.836-4.614C160.432,44.061,100.192,28.95,44.335,13.072C43.027,13.354,42.884,12.472,42.797,11.534z"
	/>
<path fill-rule="evenodd" clip-rule="evenodd" d="M149.675,16.147c0.399,1.907,1.875,2.739,3.075,3.844
	c-0.251,2.824-0.88,5.271-2.307,6.92c-3.314,1.048-2.917-0.096-7.689,0C139.481,22.229,141.214,13.72,149.675,16.147z"/>
<path fill-rule="evenodd" clip-rule="evenodd" d="M144.293,28.45c1.538,0,3.075,0,4.613,0c0,2.819,0,5.639,0,8.458
	c-2.352,0.558-2.262-1.327-4.613-0.769C144.293,33.576,144.293,31.013,144.293,28.45z"/>
<path fill-rule="evenodd" clip-rule="evenodd" d="M148.281,155.319c-2.853,11.5-7.54,21.166-11.533,31.524
	c-9.034-1.475-19.329-1.688-29.988-1.537c3.177-9.637,7.083-18.547,10.765-27.681l1.261-4.421
	c13.748-34.537,14.645-89.436-2.03-119.373c10.156,2.403,19.831,5.286,29.987,7.689c12.429,22.951,15.005,66.002,6.92,96.113
	L148.281,155.319z"/>
<path fill-rule="evenodd" clip-rule="evenodd" d="M225.796,153.012c7.204-28.506,5.312-67.45-3.844-92.269
	c5.922,1.511,11.987,2.877,17.685,4.614c17.778,41.705,10.439,109.875-16.147,136.096c-5.68-1.495-12.222-2.131-17.685-3.845
	c-0.471-2.754,2.569-5.951,4.613-9.227c5.619-8.998,12.362-21.099,15.005-33.735"/>
<path fill-rule="evenodd" clip-rule="evenodd" d="M308.07,139.172c0,1.538,0,3.076,0,4.613c-3.572,0.753-4.642-0.997-6.92-1.538
	c0-2.05,0-4.101,0-6.151C302.738,137.84,305.656,138.255,308.07,139.172z"/>
<path fill-rule="evenodd" clip-rule="evenodd" d="M308.07,144.555c0,1.538,0,3.076,0,4.613c-1.794,0-3.589,0-5.382,0
	c0.376-2.427-1.386-2.715-0.77-5.382C303.76,144.251,305.427,144.891,308.07,144.555z"/>
<path fill-rule="evenodd" clip-rule="evenodd" fill="none" d="M82.011,155.319c-0.497-3.06,2.035-3.091,1.538-6.151"/>
<path fill-rule="evenodd" clip-rule="evenodd" d="M143.524,188.382c2.643-0.336,4.31,0.305,6.151,0.769
	c-0.231,8.975,0.847,20.297,0.769,24.605c-0.492,2.775-3.687-0.209-6.92,0.769C143.524,205.812,143.524,197.097,143.524,188.382z"/>
<path fill-rule="evenodd" clip-rule="evenodd" d="M11.272,200.685c1.192,1.885,1.147,5.005,1.538,7.688
	c-1.308-0.282-1.451,0.602-1.538,1.538C9.129,208.92,8.834,201.586,11.272,200.685z"/>
<path fill-rule="evenodd" clip-rule="evenodd" d="M12.041,209.143c2.862,5.133,3.818,9.742,6.92,13.84
	c2.418,3.194,7.893,5.141,6.92,10.765C13.566,233.247,11.361,222.638,12.041,209.143z"/>
<path fill-rule="evenodd" clip-rule="evenodd" fill="none" d="M229.641,221.445c0.857-3.244,8.487,0.286,7.689-4.614
	c1.72,0.332,0.312,3.791,0.769,5.383C235.06,224.444,232.118,223.384,229.641,221.445z"/>
<path fill-rule="evenodd" clip-rule="evenodd" fill="none" d="M123.532,222.214c3.053,1.463,2.69,7.614-2.307,6.92
	C121.145,225.978,124.298,226.057,123.532,222.214z"/>
<path fill-rule="evenodd" clip-rule="evenodd" fill="none" d="M92.007,229.903c-3.657-0.24,0.461-3.484-0.769-6.151
	C93.939,224.174,92.472,228.212,92.007,229.903z"/>
<path fill-rule="evenodd" clip-rule="evenodd" fill="none" d="M141.217,232.21c-2.667-2.245,0.457-5.54-3.076-6.921
	c0.425-2.646,2.973-0.444,4.613,0C143.581,229.334,142.729,229.354,141.217,232.21z"/>
<path fill-rule="evenodd" clip-rule="evenodd" fill="none" d="M35.877,232.979c-1.273-0.776-0.835-3.265-1.538-4.613
	C38.626,227.723,37.103,227.362,35.877,232.979z"/>
<path fill-rule="evenodd" clip-rule="evenodd" d="M149.675,231.44c0.25-1.801,3.354-0.746,3.844-2.307
	C155.876,231.803,152.196,232.618,149.675,231.44z"/>
<path fill-rule="evenodd" clip-rule="evenodd" fill="none" d="M112.768,231.44c0.597-1.402,0.827,0.461,0.769,1.538
	c0.703,2.091,1.429-2.049,3.844-0.769c1.02,1.287,2.037,2.577,1.538,5.382c-1.787-0.52-2.058-2.555-3.845-3.075
	c-1.681,0.114-1.651,1.938-1.538,3.845C112.112,240.229,113.018,233.292,112.768,231.44z"/>
<path fill-rule="evenodd" clip-rule="evenodd" fill="none" d="M141.986,233.747c0.315,1.854-1.404,1.672-0.769,3.845
	c-3.252,0.178-1.742-4.409-6.151-3.075C135.479,229.661,139.891,232.19,141.986,233.747z"/>
<path fill-rule="evenodd" clip-rule="evenodd" fill="none" d="M49.717,232.21c1.8,0.25,0.747,3.354,2.307,3.844
	C50.604,237.765,48.281,233.908,49.717,232.21z"/>
<path fill-rule="evenodd" clip-rule="evenodd" fill="none" d="M81.242,242.975c-3.222,0.916-1.373-3.241-3.075-3.845
	c0.435-0.718,2.138-1.164,0.769-1.538C81.204,234.88,80.149,241.967,81.242,242.975z"/>
<path fill-rule="evenodd" clip-rule="evenodd" fill="none" d="M173.511,239.898c-0.11,3.223-3.232,3.432-2.307,7.689
	C166.992,246.641,167.372,238.571,173.511,239.898z"/>
<path fill-rule="evenodd" clip-rule="evenodd" fill="none" d="M121.995,240.668c1.025,0,2.05,0,3.076,0
	c0.323,3.143-2.531,3.108-1.538,6.92C120.384,246.796,121.433,243.517,121.995,240.668z"/>
<path fill-rule="evenodd" clip-rule="evenodd" d="M344.208,136.097c-1.619,4.398-3.497-0.054-6.92,1.538
	c3.25-2.614-1.066-5.81-3.076-7.689c2.049,5.264-1.248,15.454,0.77,18.454c-3.016-3.03-4.136,1.128-5.383,0.769
	c-1.268-6.662,3.674-11.176,1.538-16.147c-0.054,2.252-0.278,4.335-3.076,3.845c-1.271-1.035-2.647-1.965-3.075-3.845
	c1.236,0.001,2.529-1.93,2.307-5.382c-0.168-0.888-4.089-4.602-5.382-6.92c-2.203,2.348-6.594,5.955-8.458,6.151
	c-4.423-0.129-5.381-2.575-5.383-4.613c-0.006-4.687,8.472-4.232,6.92-6.151c-11.851-0.411-19.803,25.635-10.765,39.983
	c2.176-0.131,5.275,0.662,5.383-1.538c-3.781,2.172-6.474-0.45-6.151-4.613c2.386,1.01,2.194-0.208,5.382,0
	c0-4.101,0-8.202,0-12.303c-4.918,0.818-6.476-1.725-7.688-4.613c1.617-0.945,0.497-4.629,2.307-5.382
	c-0.336,5.461,6.61,3.643,6.92,8.458c-1.278-1.786-1.717,21.923,0,15.378c8.279,32.71,35.913,85.963,6.151,113.798
	c-15.365,14.372-52.979,15.553-76.891,17.685c1.352,0.443,4.518-0.929,4.613,0.77c-4.688,1.076-8.999-2.247-12.303,0
	c1.118,0.42,3.975-0.898,3.845,0.769c-4.456,0.1-8.579-0.134-11.533-1.538c47.219-5.647,86.269-15.326,86.117-61.512
	c-0.077-23.615-13.505-41.078-7.688-62.282c6.266,23.162,20.057,47.96,16.915,76.891c-1.685,15.521-10.898,25.823-23.836,33.063
	c-0.545,0.305-9.095,4.083-3.845,2.307c13.485-4.563,26.564-16.964,28.45-35.37c4.386-42.815-20.261-66.941-23.067-103.033
	c0.034,1.404-1.623,4.92-2.307,3.076c-0.958-4.063,2.354-7.858,0-10.765c-2.431,4.961,0.96,13.553-0.769,17.685
	c-3.361-10.961-0.153-25.439,0.769-33.832c5.5,2.942,9.105-3.565,14.609,1.538c1.931-1.966-1.179-4.202,1.538-5.382
	c0.402,4.016-0.225,4.129,3.075,2.307c3.374-1.417-4.311-4.149-4.613-6.92c5.184,1.48,6.422,6.905,13.071,6.92
	c1.846-0.667-3.118-4.98-0.769-6.151c1.72,6.225,9.247,6.644,11.533,12.302c-1.608-0.002-2.891-4.188-3.845-2.307
	c2.085,0.478,1.914,3.212,4.613,3.076c-0.678-5.216-4.395-7.395-4.613-13.071c2,1.587,2.205,4.971,3.845,6.92
	c0.613-4.479-2.835-8.927-0.769-12.303c4.481,8.846,5.673,20.982,9.995,29.988c0.033,1.058-0.361,1.688-0.769,2.307
	c0.042,0.809,0.985,0.605,0.769-0.769c0.771-0.002,0.916,0.623,1.538,0.769C344.208,130.971,344.208,133.534,344.208,136.097z
	 M318.066,114.567c1.363-0.943,2.228-2.386,3.845-3.076c-2.549,0.694-3.336-4.272-4.614-2.307
	C320.019,110.708,317.112,116.404,318.066,114.567z M296.537,119.95c0.154-2.222,5.555-3.609,1.537-5.382
	C297.902,116.25,294.606,118.707,296.537,119.95z M341.133,131.483c-2.509-2.887-6.538-8.312-9.996-7.689
	C335.655,125.171,337.624,129.098,341.133,131.483z"/>
<path fill-rule="evenodd" clip-rule="evenodd" d="M275.776,210.681c4.392-6.866,14.295-14.028,16.146-26.912
	c1.854-12.9-1.374-26.407,6.151-35.369c1.632,2.469,1.47,6.731,3.845,8.457c0.142,0.655-0.3,0.726-0.769,0.77
	C299.991,182.609,291.586,200.348,275.776,210.681z"/>
<path fill-rule="evenodd" clip-rule="evenodd" d="M193.502,228.365c0.961,0.91,3.591-3.035,7.689-1.538
	c3.046,3.713,1.893,12.005-5.383,9.996c-1.991-2.229-3.535-6.842-2.307-9.996c1.663-0.645,2.623-1.989,5.383-1.538
	c2.845-1.927,3.042-7.531-0.769-8.458c1.769,3.529-2.041,5.469-3.076,8.458c-1.028-2.561-1.834-5.343-6.151-4.613
	c1.333-2.254,3.605-3.569,6.92-3.845c-5.257-1.144-10.063,4.794-11.533,9.996c1.73-1.601,2.198-4.466,3.845-6.151
	c5.257,1.903,2.197,15.363,8.458,16.916c3.483,0.863,8.017-1.105,6.92-8.458c2.845,4.447-5.813,14.761,4.613,13.071
	c-3.146-0.696-1.869-5.819-3.075-8.458c3.334,0.254,4.018,3.158,5.382,5.383c-1.672,4.345-6.638,9.087-12.302,6.92
	c-0.933-4.519,3.054-4.122,3.075-7.688c-0.113-1.716-1.938,0.998-3.845,0c-1.11,0.939-1.166,2.934-2.307,3.844
	c0.356,2.463,2.928,2.713,3.076,5.383c6.529,0.121,10.249-2.565,12.302-6.92c5.644,5.43-5.073,10.204-8.458,10.765
	c-11.301,1.874-22.006-6.3-22.298-19.223c-0.353-15.581,18.398-28.113,30.756-14.609c-0.748,0.021-0.597,0.941-0.769,1.538
	c-3.233,0.462-6.763-4.875-13.071-3.845c4.527,1.368,9.359,2.43,12.303,5.382c-0.914,3.188-5.374,2.828-8.458,3.845
	c0.532,4.59,5.93,0.877,6.92,3.845C204.989,232.041,198.36,221.613,193.502,228.365z M184.276,231.44
	c0.102-1.011,0.116-5.563-0.769-3.075c-1.979,9.989,5.949,18.054,9.227,17.685c-1.98-0.838-3.696-1.943-4.613-3.845
	c1.772,0.236,0.854-2.221,2.307-2.307c2.496,0.446,3.577-0.522,5.382-0.769c-0.884-3.622-2.296-3.739-6.15-3.076
	c-1.592,1.229-0.947,4.693-2.308,6.151c-1.312-3.045-3.404-5.31-3.075-9.995c0.983-0.042,1.064-0.985,2.307-0.77
	c3.021,0.312,3.284,3.381,6.151,3.845C193.057,228.843,187.257,226.548,184.276,231.44z"/>
<path fill-rule="evenodd" clip-rule="evenodd" d="M112.768,223.752c-0.748,0.021-0.597,0.941-0.769,1.537
	c-1.568-0.225-1.508-2.079-3.076-2.307c0.237,1.814,2.67,1.432,2.307,3.845c-0.989,1.317-2.527,2.086-4.614,2.307
	c1.525-1.512,0.49-4.391,0-6.151c0.513,0,1.025,0,1.538,0c-1.762-1.353-5.646-0.543-7.689,1.538
	c0.979,1.667,2.509-2.558,5.383-1.538c-0.462,4.324-0.704,6.853-2.307,8.458c0.989,2.15,1.59-2.422,3.845-1.537
	c0.335,0.945,0.984,1.579,2.307,1.537c-0.755,2.358-2.051-0.883-3.076-0.769c0.993,2.083,3.418,2.733,3.076,6.151
	c-1.374-0.217-1.578,0.727-0.769,0.769c-0.25,1.801-3.354,0.746-3.844,2.307c-3.445-2.964-1.202-7.724-1.538-12.303
	c-0.65-1.473-3.373-2.079-4.613-0.769c2.593-1.114,2.846,3.484,3.845,6.151c-1.752-0.45-6.321-0.682-5.382,5.383
	c1.597-0.197,0.21-3.378,1.538-3.845c2.084,0.479,1.914,3.212,4.613,3.075c-0.115,1.422-2.604,0.472-3.076,1.538
	c0,1.282,0,2.563,0,3.845c1.375-1.7,4.073-2.079,6.151-3.076c-0.767,1.027-2.078,1.511-2.307,3.076
	c-0.635,2.173,1.083,1.992,0.769,3.844c0.949-2.126,2.034-4.116,2.307-6.92c0.252,0.552,2.851,5.325,5.382,6.151
	c-2.76,8.775-16.938,3.717-16.147-4.613c-0.748,0.021-0.597,0.941-0.769,1.538C91.329,232.512,102.456,209.547,112.768,223.752z"/>
<path fill-rule="evenodd" clip-rule="evenodd" d="M85.856,226.827c1.905,0.915,2.851,2.787,2.307,6.151
	c0.918,0.952,3.931-3.376,6.92-0.769c-2.558,6.121-4.071,8.758,2.307,13.84c-17.975,23.722-19.673-43.054,0-23.067
	c-0.139,5.501-5.001,6.276-7.689,9.228C89.501,231.69,91.488,225.722,85.856,226.827z M91.238,223.752
	c1.23,2.667-2.888,5.911,0.769,6.151C92.472,228.212,93.939,224.174,91.238,223.752z M87.394,232.979
	c-1.949-0.578-3.607,2.938-2.307,3.075c1.554-2.97,3.3,4.27,4.613,1.538C88.465,236.52,88.881,233.797,87.394,232.979z
	 M87.394,239.13c-0.602,0.534-1.711,4.29,0,4.613c-0.81-1.944,2.593-3.407,3.076-1.538c-1.312,1.241-0.704,3.964,0.769,4.613
	c-0.94-3.503,2.109-3.017,1.538-6.15C88.863,240.155,92.455,239.055,87.394,239.13z M92.776,248.356
	c0.85-0.52,3.989-2.555,2.307-3.075C92.455,249.655,82.259,245.14,92.776,248.356z"/>
<path fill-rule="evenodd" clip-rule="evenodd" d="M311.146,130.714c3.262,2.46-0.934,19.699,0,5.382
	c0.097-1.379-0.941-1.622-0.77-3.076c0.623,0.146,0.767,0.771,1.538,0.769c-4.729-1.103-11.099-6.901-5.383-11.534
	c1.237,3.377,4.064,5.164,7.689,6.151C313.07,129.379,312.845,132.485,311.146,130.714z"/>
<path fill-rule="evenodd" clip-rule="evenodd" fill="none" d="M317.296,109.185c1.278-1.965,2.065,3,4.614,2.307
	c-1.617,0.69-2.481,2.132-3.845,3.076C317.112,116.404,320.019,110.708,317.296,109.185z"/>
<path fill-rule="evenodd" clip-rule="evenodd" fill="none" d="M298.074,114.567c4.018,1.773-1.383,3.16-1.537,5.382
	C294.606,118.707,297.902,116.25,298.074,114.567z"/>
<path fill-rule="evenodd" clip-rule="evenodd" fill="none" d="M331.137,123.794c3.458-0.623,7.487,4.803,9.996,7.689
	C337.624,129.098,335.655,125.171,331.137,123.794z"/>
<path fill-rule="evenodd" clip-rule="evenodd" d="M12.041,189.15c2.073-6.693,1.452,2.272,1.538,6.151
	c-0.625-1.05-2.625-3.272-0.769,3.845c-0.748-0.021-0.596-0.939-0.769-1.538c-1.108,0.175-0.268,2.295-1.538,2.308
	c-4.842-1.284-4.022-15.275-0.769-17.686c2.333-1.213,1.596,4.987,2.307,0.77C13.753,183.785,11.035,186.535,12.041,189.15z"/>
<path fill-rule="evenodd" clip-rule="evenodd" fill="none" d="M225.796,235.285c-1.97,2.388-7.853,0.862-8.457,4.613
	c1.933,2.681,4.656,4.571,9.227,4.613c1.331-0.644-2.044-3.021-2.307-4.613c0.825-3.019,3.057-4.631,6.151-5.382
	c0.917,3.111-4.409,6.688-3.076,10.765c-8.928,0.917-14.982-9.021-13.84-13.071c0.049,3.538,2.185,4.991,3.075,7.688
	c1.72-0.33,0.312-3.789,0.77-5.382C220.448,231.708,223.61,232.434,225.796,235.285z"/>
<path fill-rule="evenodd" clip-rule="evenodd" fill="none" d="M238.099,240.668c-1.459-1.361-4.923-0.715-6.151-2.307
	c0.367-5.818,3.447-13.392-3.075-15.379c2.657-1.84,7.826,6.654,13.84,4.613c1.112-14.065-16.63-20.899-25.373-11.533
	c2.261,1.584,7.854-0.165,6.15,5.383c1.646-1.966,6.114-5.132,3.845-8.458c3.68-1.426,4.562,6.144,1.538,8.458
	c-2.255-1.303-6.539,0.833-6.92,3.844c1.095,1.54,1.801-3.785,4.613-3.075c-1.551,0.221-6.322,6.869-2.307,10.765
	c-2.99-1.497-6.625-5.035-10.765-4.613c0.176-2.644,2.288-3.351,4.613-3.845c1.304,1.517,3.875,1.765,3.075,5.383
	c0.929-3.509-0.666-11.11-3.844-13.072c-2.298,1.669-4.611,6.931-4.614,6.921c-2.389-8.993,16.781-16.916,25.374-9.228
	c3.402,3.046,5.809,8.505,5.383,16.916c-0.886,2.488-0.87-2.064-0.77-3.075c-1.277,1.285-2.013,3.113-4.613,3.075
	c-2.915-0.416-4.514-2.15-3.845-6.151c-0.449,4.47,0.934,14.475,3.845,14.609c1.937,0.091,1.443-2.874,3.845-5.382
	c1.581-1.652,0.242,2.413-0.769,3.845c-0.389,0.549-6.965,7.154-12.303,7.688C228.352,243.713,236.999,243.941,238.099,240.668z"/>
<path fill-rule="evenodd" clip-rule="evenodd" fill="none" d="M188.121,242.205c1.772,0.236,0.854-2.221,2.307-2.307
	c2.496,0.446,3.577-0.522,5.382-0.769c-0.884-3.622-2.296-3.739-6.15-3.076c-1.592,1.229-0.947,4.693-2.308,6.151
	c-1.312-3.045-3.404-5.31-3.075-9.995c0.983-0.042,1.064-0.985,2.307-0.77c3.021,0.312,3.284,3.381,6.151,3.845
	c0.323-6.442-5.477-8.737-8.458-3.845c0.102-1.011,0.116-5.563-0.769-3.075c-1.979,9.989,5.949,18.054,9.227,17.685
	C190.753,245.212,189.038,244.106,188.121,242.205z"/>
<path fill-rule="evenodd" clip-rule="evenodd" d="M221.953,249.126c-19.686-5.991-17.228-45.295,8.458-42.29
	C255.201,209.737,250.439,257.795,221.953,249.126z M238.099,222.214c-0.457-1.592,0.951-5.051-0.769-5.383
	c0.798,4.9-6.832,1.37-7.689,4.614C232.118,223.384,235.06,224.444,238.099,222.214z M228.873,246.05
	c5.338-0.534,11.914-7.14,12.303-7.688c1.011-1.432,2.35-5.497,0.769-3.845c-2.401,2.508-1.908,5.473-3.845,5.382
	c-2.911-0.135-4.294-10.14-3.845-14.609c-0.669,4.001,0.93,5.735,3.845,6.151c2.601,0.038,3.336-1.79,4.613-3.075
	c-0.101,1.011-0.116,5.563,0.77,3.075c0.426-8.411-1.98-13.87-5.383-16.916c-8.593-7.688-27.763,0.234-25.374,9.228
	c0.003,0.01,2.316-5.252,4.614-6.921c3.178,1.962,4.772,9.563,3.844,13.072c0.8-3.618-1.771-3.866-3.075-5.383
	c-2.325,0.494-4.438,1.201-4.613,3.845c4.14-0.422,7.774,3.116,10.765,4.613c-4.016-3.896,0.756-10.544,2.307-10.765
	c-2.813-0.71-3.519,4.615-4.613,3.075c0.381-3.011,4.665-5.146,6.92-3.844c3.023-2.314,2.142-9.884-1.538-8.458
	c2.27,3.326-2.198,6.492-3.845,8.458c1.703-5.548-3.89-3.799-6.15-5.383c8.743-9.366,26.485-2.532,25.373,11.533
	c-6.014,2.041-11.183-6.453-13.84-4.613c6.522,1.987,3.442,9.561,3.075,15.379c1.229,1.592,4.692,0.945,6.151,2.307
	C236.999,243.941,228.352,243.713,228.873,246.05z M228.873,233.747c-6.58-1.498-3.971,1.211,1.538,0.77
	c-0.221-1.354,3.62-2.381,1.537-3.076C231.733,233.021,229.894,232.976,228.873,233.747z M217.339,234.517
	c-0.458,1.593,0.95,5.052-0.77,5.382c-0.891-2.697-3.026-4.15-3.075-7.688c-1.143,4.05,4.912,13.988,13.84,13.071
	c-1.333-4.076,3.993-7.653,3.076-10.765c-3.095,0.751-5.326,2.363-6.151,5.382c0.263,1.592,3.638,3.97,2.307,4.613
	c-4.57-0.042-7.294-1.933-9.227-4.613c0.604-3.751,6.487-2.226,8.457-4.613C223.61,232.434,220.448,231.708,217.339,234.517z"/>
<path fill-rule="evenodd" clip-rule="evenodd" d="M177.356,219.907c0.479,2.084,3.212,1.915,3.075,4.613
	c-1.226-0.475-4.549,2.271-7.689,2.307c3.061,3.471,2.191,2.504-1.538,0.769c-2.797,0.28-4.335,1.817-4.614,4.614
	c1.487-1.077,1.474-3.652,3.845-3.845c5.5-0.75,5.546,7.225,3.076,9.996c-3.31,0.233-6.206,0.054-6.151-3.076
	c-3.222,1.153,4.377,3.848,0,3.845c0.241-1.852-3.355-3.723-0.769-5.383c-1.012-1.55-2.524-2.601-4.613-3.075
	c-2.886-0.578-1.676,2.938-3.844,3.075c2.468-1.134,4.72,0.993,7.689,3.076c-2.056,1.533-4.717,2.46-3.845,6.92
	c-1.229-1.078-1.964-2.649-2.307-4.613c-1.408,10.664,18.382,13.113,23.067,3.845c0.652,9.151-8.9,10.321-13.071,9.995
	c-19.489-1.522-20.964-44.215,5.383-38.445C183.101,216.289,183.856,227.258,177.356,219.907z M171.205,219.139
	c0.355,4.455-2.154,6.049-3.845,8.457c1.396-4.728-2.677-3.986-4.613-5.382c0.895-1.706,6.155-3.021,5.382-3.845
	c-4.508,0.248-9.656,7.58-8.458,8.458c0.908-1.142,0.666-3.435,3.076-3.075c2.912,0.677,0.573,6.603,3.076,7.688
	c1.12-2.724,2.729-4.959,6.92-4.613C173.44,223.836,174.138,220.265,171.205,219.139z"/>
<path fill-rule="evenodd" clip-rule="evenodd" fill="none" d="M172.742,226.827c-4.19-0.346-5.8,1.89-6.92,4.613
	c-2.503-1.086-0.164-7.012-3.076-7.688c-2.41-0.359-2.167,1.934-3.076,3.075c-1.198-0.878,3.95-8.21,8.458-8.458
	c0.772,0.823-4.487,2.139-5.382,3.845c1.937,1.396,6.009,0.654,4.613,5.382c1.691-2.408,4.2-4.002,3.845-8.457
	C174.138,220.265,173.44,223.836,172.742,226.827z"/>
<path fill-rule="evenodd" clip-rule="evenodd" d="M155.058,226.059c0.515-2.125-3.759-8.477-11.534-6.92
	c3.952,0.917,8.001,1.738,10.765,3.844c0.301,4.146-3.913,3.777-6.92,4.613c2.041-2.204,1.347-5.149-0.769-6.92
	c0.13,1.61-1.694,4.636-3.076,6.92c1.056,1.508,4.711,0.415,6.151,1.538c-0.094,3.602-1.119-0.836-3.076,0
	c3.852,3.509,9.015,8.542,8.458,15.378c-4.286-0.327-2.126-7.1-4.614-9.227c-1.11,0.94-1.166,2.935-2.307,3.845
	c-3.121,0.302-5.357-0.281-5.382-3.076c-2.084,0.697,0.648,2.831,1.538,3.076c-1.749,1.438-2.971-1.837-6.151,0
	c0.245,1.784-0.124,2.952-0.769,3.845c3.271,0.26,9.524-2.638,12.303-5.383c0.671,2.409-11.117,6.209-3.845,10.765
	c-0.293-1.902,1.521-5.401,3.076-7.688c1.042,2.034,1.102,5.05,5.382,3.844c-0.521,1.787-2.555,2.06-3.076,3.845
	c2.023-1.053,3.561-2.591,4.613-4.613c1.453,0.086,0.534,2.543,2.307,2.307c-3.384,4.788-6.944,7.739-12.303,7.689
	c-27.906-0.253-10.876-57.679,11.534-32.294C157.057,223.443,155.07,223.764,155.058,226.059z M142.755,225.289
	c-1.64-0.444-4.188-2.646-4.613,0c3.532,1.381,0.409,4.676,3.076,6.921C142.729,229.354,143.581,229.334,142.755,225.289z
	 M136.604,223.752c-2.393,3.152,3.374-1.416,6.151-3.845C140.373,220.529,137.039,223.18,136.604,223.752z M135.066,234.517
	c4.41-1.334,2.899,3.253,6.151,3.075c-0.635-2.173,1.083-1.991,0.769-3.845C139.891,232.19,135.479,229.661,135.066,234.517z
	 M148.906,249.895c3.168-2.753-2.852-0.002-5.382-0.769c-4.051-1.229-7.289-6.531-6.92-5.383
	C138.462,248.035,142.33,250.319,148.906,249.895z"/>
<path fill-rule="evenodd" clip-rule="evenodd" d="M131.221,228.365c-1.912-0.116-0.225-2.604,0-3.076
	c-3.015,1.493-2.643,3.393-6.151,3.076c-0.034,1.315,0.571,1.991,1.538,2.307c-0.043,1.694-4.046-2.988-5.382,0
	c-1.473-1.859-0.34-6.322-4.613-5.383c0.635-1.927,2.694-2.431,3.844-3.844c-2.973,0.104-3.033,3.119-5.382,3.844
	c3.149-1.224,2.119,5.964,4.614,7.689c-0.668-4.328,8.637-0.201,10.765-2.307c0.055,3.825-2.262,0.505-3.845,2.307
	c0,1.025,0,2.052,0,3.075c0.56,0.817,2.314,0.089,3.845,1.538c-0.545,2.852,1.313,3.301,0.769,6.151
	c-3.225-0.106-3.141-3.523-3.076-6.92c-2.695,1.587-2.494,5.108-0.769,7.688c2.806,0.684,4.095-1.357,5.382,0
	c-0.525,7.601-8.705,8.436-12.303,7.689c-20.704-4.292-5.251-51.343,12.303-29.219C132.885,225.416,130.716,225.553,131.221,228.365
	z M115.074,244.512c1.059,0.379,4.558,4.24,3.076,2.307c-0.227-1.567-2.08-1.507-2.307-3.075c1.9-2.365,11.466-4.713,9.996-5.382
	C120.471,240.492,115.851,236.338,115.074,244.512z M123.532,247.588c-0.993-3.812,1.861-3.777,1.538-6.92c-1.025,0-2.05,0-3.076,0
	C121.433,243.517,120.384,246.796,123.532,247.588z M121.226,229.134c4.997,0.694,5.359-5.457,2.307-6.92
	C124.298,226.057,121.145,225.978,121.226,229.134z M113.537,238.361c-0.113-1.907-0.143-3.73,1.538-3.845
	c1.787,0.521,2.058,2.556,3.845,3.075c0.499-2.805-0.518-4.095-1.538-5.382c-2.415-1.28-3.142,2.859-3.844,0.769
	c0.058-1.077-0.172-2.94-0.769-1.538C113.018,233.292,112.112,240.229,113.537,238.361z"/>
<path fill-rule="evenodd" clip-rule="evenodd" fill="none" d="M125.839,238.361c1.47,0.669-8.096,3.017-9.996,5.382
	c0.227,1.568,2.08,1.508,2.307,3.075c1.482,1.934-2.017-1.928-3.076-2.307C115.851,236.338,120.471,240.492,125.839,238.361z"/>
<path fill-rule="evenodd" clip-rule="evenodd" fill="none" d="M89.7,237.592c-1.313,2.731-3.059-4.508-4.613-1.538
	c-1.3-0.138,0.358-3.653,2.307-3.075C88.881,233.797,88.465,236.52,89.7,237.592z"/>
<path fill-rule="evenodd" clip-rule="evenodd" fill="none" d="M92.776,240.668c0.572,3.134-2.478,2.647-1.538,6.15
	c-1.473-0.649-2.081-3.372-0.769-4.613c-0.482-1.869-3.885-0.406-3.076,1.538c-1.711-0.323-0.602-4.079,0-4.613
	C92.455,239.055,88.863,240.155,92.776,240.668z"/>
<path fill-rule="evenodd" clip-rule="evenodd" fill="none" d="M142.755,219.907c-2.777,2.429-8.544,6.997-6.151,3.845
	C137.039,223.18,140.373,220.529,142.755,219.907z"/>
<path fill-rule="evenodd" clip-rule="evenodd" d="M64.327,230.672c1.988-1.24,2.878-3.576,1.538-6.151
	c-1.273,0.778-0.835,3.267-1.538,4.613c-1.69-0.559-2.555-3.608-4.614-1.538c1.371-0.135,3.028,1.434,2.307,5.383
	c1.724-0.326,2.451-1.648,3.845-2.307c2.68,0.396,1.127,5.023,1.538,7.689c-2.54,1.126-4.973,3.544-3.075,6.92
	c1.273-0.776,0.835-3.265,1.538-4.613c1.901,0.917,3.006,2.632,3.845,4.613c-11.1,16.459-18.544-22.732-6.151-24.605
	C71.845,219.424,70.742,229.592,64.327,230.672z M60.482,232.21c-0.215,1.156-3.306,3.237-1.538,3.844
	c1.098-3.377,2.468,0.758,3.844,1.538c-1.504,0.106-3.648,3.432-1.538,4.613c0.213-2.605,3.916-1.723,4.613-3.844
	C60.789,240.964,64.983,233.303,60.482,232.21z"/>
<path fill-rule="evenodd" clip-rule="evenodd" fill="none" d="M65.864,238.361c-0.698,2.121-4.4,1.238-4.613,3.844
	c-2.11-1.182,0.034-4.507,1.538-4.613c-1.376-0.78-2.746-4.915-3.844-1.538c-1.769-0.606,1.323-2.688,1.538-3.844
	C64.983,233.303,60.789,240.964,65.864,238.361z"/>
<path fill-rule="evenodd" clip-rule="evenodd" fill="none" d="M231.948,231.44c2.083,0.695-1.758,1.722-1.537,3.076
	c-5.509,0.441-8.118-2.268-1.538-0.77C229.894,232.976,231.733,233.021,231.948,231.44z"/>
<path fill-rule="evenodd" clip-rule="evenodd" d="M181.201,242.975c-0.686,0.473-1.376,0.93-1.538,0
	c-3.089,0.014-2.137-4.015-2.307-6.921c-2.772,0.586-3.609,3.564-2.307,6.151c0.085,1.965,2.574,1.526,4.613,1.538
	c-1.86,6.509-14.713,5.489-17.685,0.769c2.504-6.209,15.153-2.274,13.84-12.302C176.275,234.079,181.363,237.929,181.201,242.975z
	 M171.205,247.588c-0.926-4.258,2.196-4.467,2.307-7.689C167.372,238.571,166.992,246.641,171.205,247.588z"/>
<path fill-rule="evenodd" clip-rule="evenodd" d="M78.167,229.134c0.901-2.17,0.153-3.265-0.769-5.382
	c-0.204,1.022-0.363,3.436-1.538,5.382c2.168,0.385,1.785,2.884,2.307,1.538c1.988,3.81,11.672,21.082-3.845,19.223
	c-13.321-5.941-2.762-42.952,9.227-24.605C81.968,231.605,83.491,227.196,78.167,229.134z M78.936,237.592
	c1.369,0.374-0.333,0.82-0.769,1.538c1.703,0.604-0.146,4.761,3.075,3.845C80.149,241.967,81.204,234.88,78.936,237.592z
	 M73.553,233.747c-0.163-0.861-0.853-1.196-1.538-1.537c-0.227,1.567-2.081,1.508-2.307,3.075c3.204-2.899,2.962,4.13,5.382,1.538
	c-1.139-0.143-0.705-1.857-0.769-3.076c0.427,0.003,0.873-0.621,0-0.769C74.279,233.448,74.208,233.889,73.553,233.747z
	 M75.091,227.596c-0.466-0.442-3.647-1.799-3.845,0c3.815-0.995,1.086,4.554,3.076,5.383c-0.13-1.039,3.91-1.536,1.538-2.307
	C74.975,233.16,74.99,228.606,75.091,227.596z M72.785,238.361c-0.253,1.797-0.925,3.176-1.538,4.613
	c2.854-1.356,2.083-2.339,5.382-2.307c-1.049,1.037-1.466,5.368,0.769,5.382c-1.506-2.731,1.003-2.795,0.769-6.151
	C74.253,239.387,77.845,238.286,72.785,238.361z"/>
<path fill-rule="evenodd" clip-rule="evenodd" fill="none" d="M74.322,232.979c0.873,0.147,0.427,0.771,0,0.769
	c0.064,1.219-0.37,2.934,0.769,3.076c-2.42,2.592-2.178-4.438-5.382-1.538c0.226-1.567,2.08-1.508,2.307-3.075
	c0.685,0.341,1.375,0.676,1.538,1.537C74.208,233.889,74.279,233.448,74.322,232.979z"/>
<path fill-rule="evenodd" clip-rule="evenodd" fill="none" d="M75.86,230.672c2.373,0.771-1.667,1.268-1.538,2.307
	c-1.99-0.829,0.74-6.378-3.076-5.383c0.198-1.799,3.378-0.442,3.845,0C74.99,228.606,74.975,233.16,75.86,230.672z"/>
<path fill-rule="evenodd" clip-rule="evenodd" fill="none" d="M78.167,239.898c0.234,3.356-2.275,3.42-0.769,6.151
	c-2.235-0.014-1.818-4.345-0.769-5.382c-3.299-0.032-2.528,0.95-5.382,2.307c0.613-1.438,1.285-2.816,1.538-4.613
	C77.845,238.286,74.253,239.387,78.167,239.898z"/>
<path fill-rule="evenodd" clip-rule="evenodd" fill="none" d="M136.604,243.743c-0.368-1.148,2.869,4.154,6.92,5.383
	c2.53,0.767,8.55-1.984,5.382,0.769C142.33,250.319,138.462,248.035,136.604,243.743z"/>
<path fill-rule="evenodd" clip-rule="evenodd" fill="none" d="M95.083,245.281c1.682,0.521-1.457,2.556-2.307,3.075
	C82.259,245.14,92.455,249.655,95.083,245.281z"/>
<path fill-rule="evenodd" clip-rule="evenodd" d="M204.048,141.721c-5.851,19.267-9.286,37.413-19.772,52.043
	c-7.47-1.501-14.689-3.252-23.067-3.845c0,0,19.175-46.24,19.992-52.286c4.483-29.497,2.271-64.322-5.383-88.424
	c8.459,1.281,15.043,4.437,23.836,5.383c8.075,21.818,9.755,56.451,5.383,83.811L204.048,141.721z"/>
<path fill-rule="evenodd" clip-rule="evenodd" d="M81.242,158.395c-4.807,9.033-8.447,19.233-12.302,29.219
	c-13.741,1.125-24.801,4.93-36.908,7.688C54.949,151.79,80.428,66.469,44.335,15.378c12.5,0.574,25.933,6.873,39.214,9.227
	c16.365,28.223,16.105,81.853,3.844,114.567"/>
<path fill-rule="evenodd" clip-rule="evenodd" d="M5.121,242.975c-5.081-15.799-6.418-34.786-3.845-46.135
	c-0.654,2.887,2.977-1.729,0.769-2.307c1.464,0.33,1.932,1.656,3.845,1.538C2.599,213.205,8.647,231.177,5.121,242.975z"/>
<path fill-rule="evenodd" clip-rule="evenodd" fill="none" stroke="#000000" stroke-width="4" stroke-miterlimit="10" d="
	M32.032,195.302c0,0,49.487-26.911,191.458,6.151"/>
<path fill-rule="evenodd" clip-rule="evenodd" d="M89.898,258.272h-3.085c-0.519,0-0.778,0.24-0.778,0.721v15.136
	c0.749,0.076,1.71,0.115,2.883,0.115c2.537,0,4.44-0.414,5.708-1.239c1.191-1.461,1.788-3.522,1.788-6.186
	c0-2.661-0.558-4.752-1.672-6.27C93.626,259.031,92.012,258.272,89.898,258.272z"/>
<path fill-rule="evenodd" clip-rule="evenodd" d="M218.25,258.272h-3.085c-0.52,0-0.779,0.24-0.779,0.721v15.136
	c0.751,0.076,1.711,0.115,2.884,0.115c2.536,0,4.44-0.414,5.708-1.239c1.192-1.461,1.787-3.522,1.787-6.186
	c0-2.661-0.557-4.752-1.672-6.27C221.978,259.031,220.364,258.272,218.25,258.272z"/>
<polygon fill-rule="evenodd" clip-rule="evenodd" points="123.37,268.132 129.049,268.132 126.195,260.03 "/>
<path fill-rule="evenodd" clip-rule="evenodd" d="M300.38,177.617c-7.146,22.101-25.272,40.004-52.285,46.135
	c4.61,23.532-20.894,33.926-34.601,20.76c-4.299,10.554-22.19,9.642-29.219,2.307c-4.142,9.384-20.793,7.958-26.143,0.77
	c-3.75,5.976-7.081,7.776-13.84,6.92c-4.703-0.595-8.423-6.975-10.765-6.92c-1.26,0.03-4.798,4.996-6.92,5.382
	c-6.553,1.191-8.203-0.663-12.303-4.613c-4.311,4.71-12.599,4.563-16.147-0.769c-1.488,7.375-12.446,4.566-13.84-0.77
	c-2.183,5.738-10.689,5.248-13.84,0.77c-0.829,2.246-3.661,2.49-6.92,2.307c-2.496-0.837-3.181-3.482-5.382-4.613
	c-1.163,1.913-2.636,3.516-5.382,3.845c-0.696-1.354-2.831-1.271-3.076-3.076c1.287,1.02,2.576,2.038,5.382,1.538
	c0.723-1.379,3.858-4.274,1.538-6.151c-0.668,2.271-1.151-1.784-3.075-0.769c-0.131,1.15,0.274,2.838-0.769,3.075
	c-0.849-2.559-0.154-5.683-3.076-2.307c-0.115-1.909,0.397-3.191,1.538-3.845c4.06,2.611,0.89,0.092,4.614-0.769
	c0.008,1.128-0.291,6.292,0.769,3.845c-0.667-4.397-1.542-7.07-0.769-9.228c-1.891,1.179-3.328-2.516-4.614,1.538
	c1.06-2.43-1.903-4.641,0-5.383c0.373,0.909,0.82,1.744,1.538,2.308c-0.115-1.909,0.397-3.191,1.538-3.845
	c0.245,1.784-0.124,2.952-0.769,3.845c2.367,0.573,1.478-2.11,3.844-1.538c0.329-4.174-1.297-6.392-4.613-6.92
	c-5.959,2.377-6.62,17.525-4.614,20.76c-2.045-0.004-1.961-2.139-3.075-3.075c-0.425,1.369-0.395,3.194-1.538,3.845
	c1.142-5.165-0.58-2.119-1.538-4.613c0.703-2.58,1.429-0.381,3.844-0.77c0.219-2.988,1.624-6.09-2.307-6.92
	c-0.299,2.008-0.395,4.219-1.538,5.382c-0.087-0.937-0.23-1.819-1.538-1.537c3.59-1.181,1.137-5.738,1.538-6.921
	c2.457,2.534,1.695,0.39,3.076-1.537c0,1.282,0,2.563,0,3.845c4.006-0.955,3.592-7.435-0.769-7.689
	c-6.545,2.672-6.642,21.948,0,24.604c3.002,0.901,3.043-5.088,4.613-3.075c1.187,1.571-1.936,3.758-4.613,3.845
	c-2.631,0.324-2.311-2.303-3.845-3.076c-0.908,1.144-0.665,3.437-3.076,3.076c-2.892,0.329-2.721-2.404-4.613-3.076
	c-0.145,3.247-4.291,2.415-4.613,0c4.592,5.431,5.144-8.774,1.538-2.307c0.112-3.327,3.7-13.504-0.769-9.995
	c0.998-1.907-1.715-3.73,0-3.845c1.32,0.704,2.267,2.078,3.845-0.77c-1.501,6.832-0.915,15.611,3.076,19.223
	c2.563-0.513,4.174-1.976,3.845-5.382c-2.098,0.561-1.548-1.527-3.076-1.538c-0.131,1.15,0.274,2.839-0.769,3.076
	c-0.511-3.33,0.876-4.763,2.307-6.151c0.131,1.15-0.275,2.838,0.769,3.075c-0.595-4.526-0.023-6.783-1.538-9.227
	c1.063-1.243,2.721-1.893,2.307-4.613c-0.908-1.142-0.666-3.435-3.076-3.076c-3.012-0.448-1.963,3.163-3.845,3.845
	c-1.158-1.148-0.23-4.384-3.076-3.845c-2.898,2.229-2.159,8.094-3.844,11.534c-12.508,0.462-13.045-11.047-16.147-19.992
	c-2.412,27.529,4.991,45.244,23.067,52.286c-20.029-6.227-26.62-27.098-23.836-52.286c0.614-5.553,1.042-12.479-2.307-16.916
	c-0.941,29.803-2.702,70.755,27.68,69.202c40.585,16.514,103.258,22.523,159.164,18.453c54.855-3.991,111.245-10.684,115.336-54.592
	C310.615,211.609,306.45,196.754,300.38,177.617z M35.877,232.979c-1.273-0.776-0.835-3.265-1.538-4.613
	C38.626,227.723,37.103,227.362,35.877,232.979z M49.717,232.21c1.8,0.25,0.747,3.354,2.307,3.844
	C50.604,237.765,48.281,233.908,49.717,232.21z M96.37,273.782c-1.816,1.403-4.685,2.104-8.606,2.104
	c-0.48,0-2.643-0.076-6.486-0.23l-0.173-0.634l1.585-0.663c0.346-0.135,0.582-0.279,0.707-0.433s0.188-0.376,0.188-0.663V258.56
	l-2.479-1.009l0.173-0.634c4.343-0.153,7.072-0.23,8.188-0.23c6.419,0,9.629,3.286,9.629,9.859
	C99.095,269.967,98.187,272.379,96.37,273.782z M136.026,275.656h-7.063l-0.173-0.634l1.585-0.663
	c0.385-0.154,0.577-0.395,0.577-0.721c0-0.116-0.028-0.24-0.086-0.375l-1.297-3.662h-6.688l-1.528,4.412l2.479,1.009l-0.173,0.634
	h-6.371l-0.143-0.521l-0.146,0.521l-3.229,0.23c-1.038-0.845-1.822-1.682-2.35-2.508c-0.529-0.826-1.398-2.518-2.609-5.074
	c-0.25-0.519-0.596-0.778-1.038-0.778h-1.672v6.487l2.393,1.009l-0.173,0.634h-6.977l-0.173-0.634l1.585-0.663
	c0.346-0.135,0.582-0.279,0.707-0.433s0.188-0.376,0.188-0.663V258.56l-2.479-1.009l0.173-0.634c3.171-0.153,5.343-0.23,6.516-0.23
	c4.978,0,7.467,1.787,7.467,5.362c0,2.825-1.519,4.574-4.555,5.247c0.211,0.191,0.404,0.471,0.577,0.836
	c1.307,2.672,2.277,4.401,2.912,5.189c0.634,0.788,1.614,1.326,2.94,1.614l-0.016,0.057l1.515-0.633
	c0.327-0.135,0.533-0.26,0.62-0.375s0.197-0.355,0.332-0.721l5.766-16.059l1.759-0.519l0.577,0.23l6.199,17.183l2.248,0.923
	L136.026,275.656z M136.977,275.656l-0.173-0.634l2.48-1.009l6.775-8.736l-5.853-5.968c-0.096-0.097-0.206-0.212-0.332-0.346
	c-0.125-0.135-0.206-0.216-0.245-0.245c-0.038-0.029-0.091-0.076-0.159-0.145c-0.067-0.066-0.134-0.109-0.202-0.129
	c-0.067-0.02-0.13-0.048-0.188-0.087c-0.058-0.038-0.163-0.086-0.317-0.145l-1.585-0.663l0.173-0.634h6.573l0.172,0.634
	l-2.479,1.009l7.149,7.266l-7.668,9.831H136.977z M152.013,273.927c0.125,0.153,0.36,0.298,0.706,0.433l1.585,0.663l-0.173,0.634
	h-7.063l-0.172-0.634l2.479-1.009V259.31c0-0.288-0.063-0.509-0.187-0.663c-0.125-0.153-0.361-0.297-0.707-0.433l-1.585-0.663
	l0.172-0.634h7.063l0.173,0.634l-2.479,1.009v14.704C151.825,273.551,151.888,273.773,152.013,273.927z M162.549,275.656h-7.063
	l-0.173-0.634l1.585-0.663c0.346-0.135,0.582-0.279,0.707-0.433s0.188-0.376,0.188-0.663V258.56l-2.479-1.009l0.173-0.634h7.063
	l0.173,0.634l-1.586,0.663c-0.346,0.136-0.582,0.279-0.707,0.433c-0.125,0.154-0.187,0.375-0.187,0.663v14.704l2.479,1.009
	L162.549,275.656z M191.38,275.656h-7.063l-0.173-0.634l1.585-0.663c0.385-0.154,0.576-0.395,0.576-0.721
	c0-0.116-0.029-0.24-0.086-0.375l-1.298-3.662h-6.688l-1.528,4.412l2.479,1.009l-0.173,0.634h-6.371h-4.123l-7.669-9.831l7.15-7.266
	l-2.479-1.009l0.173-0.634h6.573l0.172,0.634l-1.585,0.663c-0.154,0.059-0.259,0.106-0.317,0.145
	c-0.058,0.039-0.12,0.067-0.188,0.087c-0.068,0.02-0.135,0.063-0.202,0.129c-0.067,0.068-0.12,0.115-0.158,0.145
	s-0.12,0.11-0.245,0.245c-0.125,0.134-0.236,0.249-0.331,0.346l-5.853,5.968l6.775,8.736l2.304,0.938l1.415-0.592
	c0.327-0.135,0.533-0.26,0.62-0.375s0.197-0.355,0.332-0.721l5.766-16.059l1.76-0.519l0.575,0.23l6.199,17.183l2.248,0.923
	L191.38,275.656z M207.986,275.656l-3.229,0.23c-1.038-0.845-1.821-1.682-2.35-2.508s-1.398-2.518-2.609-5.074
	c-0.249-0.519-0.596-0.778-1.038-0.778h-1.671v6.487l2.393,1.009l-0.173,0.634h-6.978l-0.173-0.634l1.585-0.663
	c0.347-0.135,0.582-0.279,0.707-0.433s0.188-0.376,0.188-0.663V258.56l-2.479-1.009l0.173-0.634c3.172-0.153,5.344-0.23,6.516-0.23
	c4.979,0,7.468,1.787,7.468,5.362c0,2.825-1.52,4.574-4.556,5.247c0.212,0.191,0.403,0.471,0.577,0.836
	c1.307,2.672,2.277,4.401,2.911,5.189c0.635,0.788,1.614,1.326,2.94,1.614L207.986,275.656z M224.721,273.782
	c-1.816,1.403-4.685,2.104-8.605,2.104c-0.48,0-2.644-0.076-6.487-0.23l-0.172-0.634l1.585-0.663
	c0.346-0.135,0.581-0.279,0.706-0.433s0.188-0.376,0.188-0.663V258.56l-2.479-1.009l0.172-0.634c4.344-0.153,7.074-0.23,8.188-0.23
	c6.419,0,9.629,3.286,9.629,9.859C227.446,269.967,226.538,272.379,224.721,273.782z"/>
<path fill-rule="evenodd" clip-rule="evenodd" d="M112.299,264.484c0.231-0.412,0.346-1.022,0.346-1.831
	c0-1.249-0.332-2.292-0.995-3.127c-0.663-0.837-1.754-1.254-3.272-1.254h-1.5c-0.519,0-0.778,0.24-0.778,0.721v7.063h1.874
	c1.422,0,2.537-0.163,3.344-0.489C111.742,265.259,112.068,264.898,112.299,264.484z"/>
<polygon fill-rule="evenodd" clip-rule="evenodd" points="178.723,268.132 184.403,268.132 181.548,260.03 "/>
<path fill-rule="evenodd" clip-rule="evenodd" d="M203.286,264.484c0.231-0.412,0.347-1.022,0.347-1.831
	c0-1.249-0.331-2.292-0.995-3.127c-0.663-0.837-1.753-1.254-3.272-1.254h-1.499c-0.519,0-0.777,0.24-0.777,0.721v7.063h1.873
	c1.423,0,2.537-0.163,3.344-0.489C202.729,265.259,203.055,264.898,203.286,264.484z"/>
</svg>
